# xmcd
#
# Track frame offsets:
#	150
#	16945
#	36988
#	57026
#	84834
#	105409
#	138000
#	156603
#	179041
#	200829
#	215408
#	240942
#	254000
#
# Disc length: 3638 seconds
# Revision: 1
# Processed by: cddbd v1.5.2PL0 Copyright (c) Steve Scherf et al.
# Submitted via: dBpowerAMP V12.0
#
DISCID=b00e340d
DTITLE=Various Artist - Tony Cini's Blues Explosion - Volume 4
DYEAR=2013
DGENRE=Blues
TTITLE0=Vdelli - Aint Bringing Me Down
TTITLE1=Jesse Valach and Blues Mountain - Cold Shoulder
TTITLE2=Minnie Marks - Little People
TTITLE3=Pete Cornelius - Town of Machine
TTITLE4=Hat Fitz and Cara - Power
TTITLE5=Cath Butler's Joynt Venture - Dangerous Desires
TTITLE6=Lloyd Spiegel - Murder For Breakfast
TTITLE7=Fiona Boyes - Baptized in Muddy's Sweat
TTITLE8=The Mojo Webb Band - Love Done Right
TTITLE9=Jungal - Say It
TTITLE10=Mark Easton - How Do You Sleep At Night
TTITLE11=Eli Wolfe - Cards Are On The Table
TTITLE12=Nick and Liesl - Most Of My Life
EXTD=
EXTT0=
EXTT1=
EXTT2=
EXTT3=
EXTT4=
EXTT5=
EXTT6=
EXTT7=
EXTT8=
EXTT9=
EXTT10=
EXTT11=
EXTT12=
PLAYORDER=
